<mxfile host="65bd71144e">
    <diagram id="1StRCvKrirlDFzW83iXV" name="系統循序圖＿中文">
        <mxGraphModel dx="1343" dy="3499" grid="1" gridSize="10" guides="1" tooltips="1" connect="1" arrows="1" fold="1" page="1" pageScale="1" pageWidth="1654" pageHeight="2336" math="0" shadow="0">
            <root>
                <mxCell id="0"/>
                <mxCell id="1" parent="0"/>
                <mxCell id="3" value="用戶" style="shape=umlActor;verticalLabelPosition=bottom;verticalAlign=top;html=1;outlineConnect=0;" vertex="1" parent="1">
                    <mxGeometry x="580" y="-1720" width="50" height="70" as="geometry"/>
                </mxCell>
                <mxCell id="8" value="&lt;font style=&quot;font-size: 20px;&quot;&gt;管理者&lt;/font&gt;" style="rounded=0;whiteSpace=wrap;html=1;fillColor=#1ba1e2;fontColor=#ffffff;strokeColor=#006EAF;" vertex="1" parent="1">
                    <mxGeometry x="785" y="-1659" width="100" height="40" as="geometry"/>
                </mxCell>
                <mxCell id="9" value="&lt;span style=&quot;font-size: 20px;&quot;&gt;餐廳&lt;/span&gt;" style="rounded=0;whiteSpace=wrap;html=1;fillColor=#1ba1e2;fontColor=#ffffff;strokeColor=#006EAF;" vertex="1" parent="1">
                    <mxGeometry x="1025" y="-1659" width="100" height="40" as="geometry"/>
                </mxCell>
                <mxCell id="10" value="&lt;font style=&quot;font-size: 20px;&quot;&gt;系統&lt;/font&gt;" style="rounded=0;whiteSpace=wrap;html=1;fillColor=#1ba1e2;fontColor=#ffffff;strokeColor=#006EAF;" vertex="1" parent="1">
                    <mxGeometry x="1275" y="-1659" width="100" height="40" as="geometry"/>
                </mxCell>
                <mxCell id="12" value="" style="endArrow=none;dashed=1;html=1;fontSize=20;" edge="1" parent="1">
                    <mxGeometry width="50" height="50" relative="1" as="geometry">
                        <mxPoint x="600" y="-630" as="sourcePoint"/>
                        <mxPoint x="600" y="-1620" as="targetPoint"/>
                    </mxGeometry>
                </mxCell>
                <mxCell id="13" value="" style="endArrow=none;dashed=1;html=1;fontSize=20;" edge="1" parent="1">
                    <mxGeometry width="50" height="50" relative="1" as="geometry">
                        <mxPoint x="840" y="-620" as="sourcePoint"/>
                        <mxPoint x="840" y="-1620" as="targetPoint"/>
                    </mxGeometry>
                </mxCell>
                <mxCell id="14" value="" style="endArrow=none;dashed=1;html=1;fontSize=20;" edge="1" parent="1">
                    <mxGeometry width="50" height="50" relative="1" as="geometry">
                        <mxPoint x="1080" y="-616.2962510850695" as="sourcePoint"/>
                        <mxPoint x="1079.9999999999998" y="-1610" as="targetPoint"/>
                    </mxGeometry>
                </mxCell>
                <mxCell id="15" value="" style="endArrow=none;dashed=1;html=1;fontSize=20;startArrow=none;" edge="1" parent="1" source="62">
                    <mxGeometry width="50" height="50" relative="1" as="geometry">
                        <mxPoint x="1320" y="-710" as="sourcePoint"/>
                        <mxPoint x="1320" y="-1610" as="targetPoint"/>
                    </mxGeometry>
                </mxCell>
                <mxCell id="16" value="" style="endArrow=classic;html=1;fontSize=20;" edge="1" parent="1">
                    <mxGeometry width="50" height="50" relative="1" as="geometry">
                        <mxPoint x="600" y="-1560" as="sourcePoint"/>
                        <mxPoint x="1290" y="-1560" as="targetPoint"/>
                    </mxGeometry>
                </mxCell>
                <mxCell id="17" value="註冊" style="text;html=1;strokeColor=none;fillColor=none;align=center;verticalAlign=middle;whiteSpace=wrap;rounded=0;fontSize=20;" vertex="1" parent="1">
                    <mxGeometry x="680" y="-1590" width="60" height="30" as="geometry"/>
                </mxCell>
                <mxCell id="19" value="" style="endArrow=classic;html=1;fontSize=20;dashed=1;" edge="1" parent="1">
                    <mxGeometry width="50" height="50" relative="1" as="geometry">
                        <mxPoint x="1290" y="-1534" as="sourcePoint"/>
                        <mxPoint x="600" y="-1534" as="targetPoint"/>
                    </mxGeometry>
                </mxCell>
                <mxCell id="20" value="" style="endArrow=classic;html=1;fontSize=20;" edge="1" parent="1">
                    <mxGeometry width="50" height="50" relative="1" as="geometry">
                        <mxPoint x="600" y="-1481" as="sourcePoint"/>
                        <mxPoint x="1290" y="-1480" as="targetPoint"/>
                    </mxGeometry>
                </mxCell>
                <mxCell id="21" value="登入" style="text;html=1;strokeColor=none;fillColor=none;align=center;verticalAlign=middle;whiteSpace=wrap;rounded=0;fontSize=20;" vertex="1" parent="1">
                    <mxGeometry x="680" y="-1510" width="60" height="30" as="geometry"/>
                </mxCell>
                <mxCell id="22" value="" style="endArrow=classic;html=1;fontSize=20;dashed=1;" edge="1" parent="1">
                    <mxGeometry width="50" height="50" relative="1" as="geometry">
                        <mxPoint x="1290" y="-1441" as="sourcePoint"/>
                        <mxPoint x="600" y="-1441" as="targetPoint"/>
                    </mxGeometry>
                </mxCell>
                <mxCell id="23" value="登入成功" style="text;html=1;strokeColor=none;fillColor=none;align=center;verticalAlign=middle;whiteSpace=wrap;rounded=0;fontSize=20;" vertex="1" parent="1">
                    <mxGeometry x="659" y="-1470" width="100" height="30" as="geometry"/>
                </mxCell>
                <mxCell id="25" value="" style="endArrow=classic;html=1;fontSize=20;" edge="1" parent="1">
                    <mxGeometry width="50" height="50" relative="1" as="geometry">
                        <mxPoint x="604" y="-1364" as="sourcePoint"/>
                        <mxPoint x="1290" y="-1364" as="targetPoint"/>
                    </mxGeometry>
                </mxCell>
                <mxCell id="26" value="創建訂餐活動" style="text;html=1;strokeColor=none;fillColor=none;align=center;verticalAlign=middle;whiteSpace=wrap;rounded=0;fontSize=20;" vertex="1" parent="1">
                    <mxGeometry x="644" y="-1400" width="130" height="30" as="geometry"/>
                </mxCell>
                <mxCell id="28" value="" style="endArrow=classic;html=1;fontSize=20;dashed=1;" edge="1" parent="1">
                    <mxGeometry width="50" height="50" relative="1" as="geometry">
                        <mxPoint x="1290" y="-1337" as="sourcePoint"/>
                        <mxPoint x="600" y="-1337" as="targetPoint"/>
                    </mxGeometry>
                </mxCell>
                <mxCell id="39" value="" style="endArrow=classic;html=1;fontSize=20;" edge="1" parent="1">
                    <mxGeometry width="50" height="50" relative="1" as="geometry">
                        <mxPoint x="600" y="-1277" as="sourcePoint"/>
                        <mxPoint x="1286" y="-1277" as="targetPoint"/>
                    </mxGeometry>
                </mxCell>
                <mxCell id="40" value="訂餐" style="text;html=1;strokeColor=none;fillColor=none;align=center;verticalAlign=middle;whiteSpace=wrap;rounded=0;fontSize=20;" vertex="1" parent="1">
                    <mxGeometry x="644" y="-1315" width="130" height="30" as="geometry"/>
                </mxCell>
                <mxCell id="42" value="" style="endArrow=classic;html=1;fontSize=20;dashed=1;" edge="1" parent="1">
                    <mxGeometry width="50" height="50" relative="1" as="geometry">
                        <mxPoint x="1290" y="-1250" as="sourcePoint"/>
                        <mxPoint x="600" y="-1250" as="targetPoint"/>
                    </mxGeometry>
                </mxCell>
                <mxCell id="43" value="" style="endArrow=classic;html=1;fontSize=20;" edge="1" parent="1">
                    <mxGeometry width="50" height="50" relative="1" as="geometry">
                        <mxPoint x="600" y="-1190" as="sourcePoint"/>
                        <mxPoint x="1286" y="-1190" as="targetPoint"/>
                    </mxGeometry>
                </mxCell>
                <mxCell id="44" value="" style="endArrow=classic;html=1;fontSize=20;dashed=1;" edge="1" parent="1">
                    <mxGeometry width="50" height="50" relative="1" as="geometry">
                        <mxPoint x="1290" y="-1160" as="sourcePoint"/>
                        <mxPoint x="600" y="-1160" as="targetPoint"/>
                    </mxGeometry>
                </mxCell>
                <mxCell id="45" value="查詢定單狀態" style="text;html=1;strokeColor=none;fillColor=none;align=center;verticalAlign=middle;whiteSpace=wrap;rounded=0;fontSize=20;" vertex="1" parent="1">
                    <mxGeometry x="645" y="-1220" width="130" height="30" as="geometry"/>
                </mxCell>
                <mxCell id="46" value="" style="endArrow=classic;html=1;fontSize=20;" edge="1" parent="1">
                    <mxGeometry width="50" height="50" relative="1" as="geometry">
                        <mxPoint x="840" y="-1110" as="sourcePoint"/>
                        <mxPoint x="1280" y="-1110" as="targetPoint"/>
                    </mxGeometry>
                </mxCell>
                <mxCell id="47" value="" style="endArrow=classic;html=1;fontSize=20;dashed=1;" edge="1" parent="1">
                    <mxGeometry width="50" height="50" relative="1" as="geometry">
                        <mxPoint x="1280" y="-1078" as="sourcePoint"/>
                        <mxPoint x="840" y="-1078" as="targetPoint"/>
                    </mxGeometry>
                </mxCell>
                <mxCell id="48" value="接收訂單" style="text;html=1;strokeColor=none;fillColor=none;align=center;verticalAlign=middle;whiteSpace=wrap;rounded=0;fontSize=20;" vertex="1" parent="1">
                    <mxGeometry x="840" y="-1140" width="130" height="30" as="geometry"/>
                </mxCell>
                <mxCell id="49" value="" style="endArrow=classic;html=1;fontSize=20;" edge="1" parent="1">
                    <mxGeometry width="50" height="50" relative="1" as="geometry">
                        <mxPoint x="840" y="-1020" as="sourcePoint"/>
                        <mxPoint x="1280" y="-1020" as="targetPoint"/>
                    </mxGeometry>
                </mxCell>
                <mxCell id="50" value="" style="endArrow=classic;html=1;fontSize=20;dashed=1;" edge="1" parent="1">
                    <mxGeometry width="50" height="50" relative="1" as="geometry">
                        <mxPoint x="1280" y="-989" as="sourcePoint"/>
                        <mxPoint x="840" y="-989" as="targetPoint"/>
                    </mxGeometry>
                </mxCell>
                <mxCell id="51" value="匯總訂單" style="text;html=1;strokeColor=none;fillColor=none;align=center;verticalAlign=middle;whiteSpace=wrap;rounded=0;fontSize=20;" vertex="1" parent="1">
                    <mxGeometry x="840" y="-1055" width="130" height="26" as="geometry"/>
                </mxCell>
                <mxCell id="52" value="" style="endArrow=classic;html=1;fontSize=20;" edge="1" parent="1">
                    <mxGeometry width="50" height="50" relative="1" as="geometry">
                        <mxPoint x="840" y="-930" as="sourcePoint"/>
                        <mxPoint x="1280" y="-930" as="targetPoint"/>
                    </mxGeometry>
                </mxCell>
                <mxCell id="53" value="" style="endArrow=classic;html=1;fontSize=20;dashed=1;" edge="1" parent="1">
                    <mxGeometry width="50" height="50" relative="1" as="geometry">
                        <mxPoint x="1280" y="-901" as="sourcePoint"/>
                        <mxPoint x="600" y="-901" as="targetPoint"/>
                    </mxGeometry>
                </mxCell>
                <mxCell id="55" value="發送通知" style="text;html=1;strokeColor=none;fillColor=none;align=center;verticalAlign=middle;whiteSpace=wrap;rounded=0;fontSize=20;" vertex="1" parent="1">
                    <mxGeometry x="840" y="-960" width="130" height="26" as="geometry"/>
                </mxCell>
                <mxCell id="56" value="" style="endArrow=classic;html=1;fontSize=20;" edge="1" parent="1">
                    <mxGeometry width="50" height="50" relative="1" as="geometry">
                        <mxPoint x="840" y="-849.9999999999998" as="sourcePoint"/>
                        <mxPoint x="1280" y="-849.9999999999998" as="targetPoint"/>
                    </mxGeometry>
                </mxCell>
                <mxCell id="57" value="獲取數據" style="text;html=1;strokeColor=none;fillColor=none;align=center;verticalAlign=middle;whiteSpace=wrap;rounded=0;fontSize=20;" vertex="1" parent="1">
                    <mxGeometry x="840" y="-880" width="130" height="26" as="geometry"/>
                </mxCell>
                <mxCell id="58" value="" style="endArrow=classic;html=1;fontSize=20;dashed=1;" edge="1" parent="1">
                    <mxGeometry width="50" height="50" relative="1" as="geometry">
                        <mxPoint x="1280" y="-820" as="sourcePoint"/>
                        <mxPoint x="840" y="-820" as="targetPoint"/>
                    </mxGeometry>
                </mxCell>
                <mxCell id="59" value="" style="endArrow=classic;html=1;fontSize=20;" edge="1" parent="1">
                    <mxGeometry width="50" height="50" relative="1" as="geometry">
                        <mxPoint x="1080" y="-770" as="sourcePoint"/>
                        <mxPoint x="1290" y="-770" as="targetPoint"/>
                    </mxGeometry>
                </mxCell>
                <mxCell id="60" value="提供資訊" style="text;html=1;strokeColor=none;fillColor=none;align=center;verticalAlign=middle;whiteSpace=wrap;rounded=0;fontSize=20;" vertex="1" parent="1">
                    <mxGeometry x="1080" y="-800" width="130" height="26" as="geometry"/>
                </mxCell>
                <mxCell id="61" value="" style="endArrow=classic;html=1;fontSize=20;dashed=1;" edge="1" parent="1">
                    <mxGeometry width="50" height="50" relative="1" as="geometry">
                        <mxPoint x="1290" y="-740" as="sourcePoint"/>
                        <mxPoint x="1080" y="-740" as="targetPoint"/>
                    </mxGeometry>
                </mxCell>
                <mxCell id="63" value="" style="endArrow=none;dashed=1;html=1;fontSize=20;startArrow=none;" edge="1" parent="1" source="64" target="62">
                    <mxGeometry width="50" height="50" relative="1" as="geometry">
                        <mxPoint x="1320" y="-710" as="sourcePoint"/>
                        <mxPoint x="1320" y="-1610" as="targetPoint"/>
                    </mxGeometry>
                </mxCell>
                <mxCell id="62" value="" style="rounded=0;whiteSpace=wrap;html=1;fontSize=20;fillColor=#1ba1e2;fontColor=#ffffff;strokeColor=#006EAF;" vertex="1" parent="1">
                    <mxGeometry x="1300" y="-1590" width="40" height="70" as="geometry"/>
                </mxCell>
                <mxCell id="65" value="" style="endArrow=none;dashed=1;html=1;fontSize=20;startArrow=none;" edge="1" parent="1" source="68" target="64">
                    <mxGeometry width="50" height="50" relative="1" as="geometry">
                        <mxPoint x="1320" y="-710" as="sourcePoint"/>
                        <mxPoint x="1320" y="-1520" as="targetPoint"/>
                    </mxGeometry>
                </mxCell>
                <mxCell id="64" value="" style="rounded=0;whiteSpace=wrap;html=1;fontSize=20;fillColor=#1ba1e2;fontColor=#ffffff;strokeColor=#006EAF;" vertex="1" parent="1">
                    <mxGeometry x="1300" y="-1500" width="40" height="70" as="geometry"/>
                </mxCell>
                <mxCell id="66" value="" style="rounded=0;whiteSpace=wrap;html=1;fontSize=20;fillColor=#1ba1e2;fontColor=#ffffff;strokeColor=#006EAF;" vertex="1" parent="1">
                    <mxGeometry x="1300" y="-1385" width="40" height="70" as="geometry"/>
                </mxCell>
                <mxCell id="69" value="" style="endArrow=none;dashed=1;html=1;fontSize=20;startArrow=none;" edge="1" parent="1" source="70" target="68">
                    <mxGeometry width="50" height="50" relative="1" as="geometry">
                        <mxPoint x="1320" y="-710" as="sourcePoint"/>
                        <mxPoint x="1320" y="-1430" as="targetPoint"/>
                    </mxGeometry>
                </mxCell>
                <mxCell id="68" value="" style="rounded=0;whiteSpace=wrap;html=1;fontSize=20;fillColor=#1ba1e2;fontColor=#ffffff;strokeColor=#006EAF;" vertex="1" parent="1">
                    <mxGeometry x="1300" y="-1290" width="40" height="70" as="geometry"/>
                </mxCell>
                <mxCell id="71" value="" style="endArrow=none;dashed=1;html=1;fontSize=20;startArrow=none;" edge="1" parent="1" source="72" target="70">
                    <mxGeometry width="50" height="50" relative="1" as="geometry">
                        <mxPoint x="1320" y="-710" as="sourcePoint"/>
                        <mxPoint x="1320" y="-1220" as="targetPoint"/>
                    </mxGeometry>
                </mxCell>
                <mxCell id="70" value="" style="rounded=0;whiteSpace=wrap;html=1;fontSize=20;fillColor=#1ba1e2;fontColor=#ffffff;strokeColor=#006EAF;" vertex="1" parent="1">
                    <mxGeometry x="1300" y="-1203" width="40" height="70" as="geometry"/>
                </mxCell>
                <mxCell id="73" value="" style="endArrow=none;dashed=1;html=1;fontSize=20;startArrow=none;" edge="1" parent="1" source="74" target="72">
                    <mxGeometry width="50" height="50" relative="1" as="geometry">
                        <mxPoint x="1320" y="-710" as="sourcePoint"/>
                        <mxPoint x="1320" y="-1133" as="targetPoint"/>
                    </mxGeometry>
                </mxCell>
                <mxCell id="72" value="" style="rounded=0;whiteSpace=wrap;html=1;fontSize=20;fillColor=#1ba1e2;fontColor=#ffffff;strokeColor=#006EAF;" vertex="1" parent="1">
                    <mxGeometry x="1300" y="-1118" width="40" height="70" as="geometry"/>
                </mxCell>
                <mxCell id="75" value="" style="endArrow=none;dashed=1;html=1;fontSize=20;startArrow=none;" edge="1" parent="1" source="76" target="74">
                    <mxGeometry width="50" height="50" relative="1" as="geometry">
                        <mxPoint x="1320" y="-710" as="sourcePoint"/>
                        <mxPoint x="1320" y="-1048" as="targetPoint"/>
                    </mxGeometry>
                </mxCell>
                <mxCell id="74" value="" style="rounded=0;whiteSpace=wrap;html=1;fontSize=20;fillColor=#1ba1e2;fontColor=#ffffff;strokeColor=#006EAF;" vertex="1" parent="1">
                    <mxGeometry x="1300" y="-1029" width="40" height="70" as="geometry"/>
                </mxCell>
                <mxCell id="77" value="" style="endArrow=none;dashed=1;html=1;fontSize=20;startArrow=none;" edge="1" parent="1" source="78" target="76">
                    <mxGeometry width="50" height="50" relative="1" as="geometry">
                        <mxPoint x="1320" y="-710" as="sourcePoint"/>
                        <mxPoint x="1320" y="-959" as="targetPoint"/>
                    </mxGeometry>
                </mxCell>
                <mxCell id="76" value="" style="rounded=0;whiteSpace=wrap;html=1;fontSize=20;fillColor=#1ba1e2;fontColor=#ffffff;strokeColor=#006EAF;" vertex="1" parent="1">
                    <mxGeometry x="1300" y="-940" width="40" height="70" as="geometry"/>
                </mxCell>
                <mxCell id="79" value="" style="endArrow=none;dashed=1;html=1;fontSize=20;startArrow=none;" edge="1" parent="1" source="80" target="78">
                    <mxGeometry width="50" height="50" relative="1" as="geometry">
                        <mxPoint x="1320" y="-630" as="sourcePoint"/>
                        <mxPoint x="1320" y="-870" as="targetPoint"/>
                    </mxGeometry>
                </mxCell>
                <mxCell id="78" value="" style="rounded=0;whiteSpace=wrap;html=1;fontSize=20;fillColor=#1ba1e2;fontColor=#ffffff;strokeColor=#006EAF;" vertex="1" parent="1">
                    <mxGeometry x="1300" y="-860" width="40" height="70" as="geometry"/>
                </mxCell>
                <mxCell id="82" value="" style="endArrow=none;dashed=1;html=1;fontSize=20;" edge="1" parent="1" target="80">
                    <mxGeometry width="50" height="50" relative="1" as="geometry">
                        <mxPoint x="1320" y="-630" as="sourcePoint"/>
                        <mxPoint x="1320" y="-790" as="targetPoint"/>
                    </mxGeometry>
                </mxCell>
                <mxCell id="80" value="" style="rounded=0;whiteSpace=wrap;html=1;fontSize=20;fillColor=#1ba1e2;fontColor=#ffffff;strokeColor=#006EAF;" vertex="1" parent="1">
                    <mxGeometry x="1300" y="-774" width="40" height="70" as="geometry"/>
                </mxCell>
            </root>
        </mxGraphModel>
    </diagram>
    <diagram name="系統循序圖＿英文" id="DMkCjMeB-MNSb0Wzo5yG">
        <mxGraphModel dx="806" dy="3034" grid="1" gridSize="10" guides="1" tooltips="1" connect="1" arrows="1" fold="1" page="1" pageScale="1" pageWidth="1654" pageHeight="2336" math="0" shadow="0">
            <root>
                <mxCell id="xo5GPQUhfcNft8Fpsyv_-0"/>
                <mxCell id="xo5GPQUhfcNft8Fpsyv_-1" parent="xo5GPQUhfcNft8Fpsyv_-0"/>
                <mxCell id="xo5GPQUhfcNft8Fpsyv_-2" value="&lt;span style=&quot;caret-color: rgb(0, 0, 0); font-family: -webkit-standard; text-align: start;&quot;&gt;&lt;font color=&quot;#ffffff&quot; style=&quot;font-size: 20px;&quot;&gt;user&lt;/font&gt;&lt;/span&gt;" style="shape=umlActor;verticalLabelPosition=bottom;verticalAlign=top;html=1;outlineConnect=0;" vertex="1" parent="xo5GPQUhfcNft8Fpsyv_-1">
                    <mxGeometry x="580" y="-1720" width="50" height="70" as="geometry"/>
                </mxCell>
                <mxCell id="xo5GPQUhfcNft8Fpsyv_-3" value="&lt;span style=&quot;caret-color: rgb(0, 0, 0); font-family: -webkit-standard; font-size: medium; text-align: start;&quot;&gt;administrator&lt;/span&gt;" style="rounded=0;whiteSpace=wrap;html=1;fillColor=#1ba1e2;fontColor=#ffffff;strokeColor=#006EAF;" vertex="1" parent="xo5GPQUhfcNft8Fpsyv_-1">
                    <mxGeometry x="785" y="-1659" width="100" height="40" as="geometry"/>
                </mxCell>
                <mxCell id="xo5GPQUhfcNft8Fpsyv_-4" value="&lt;span style=&quot;caret-color: rgb(0, 0, 0); font-family: -webkit-standard; font-size: medium; text-align: start;&quot;&gt;restaurant&lt;/span&gt;" style="rounded=0;whiteSpace=wrap;html=1;fillColor=#1ba1e2;fontColor=#ffffff;strokeColor=#006EAF;" vertex="1" parent="xo5GPQUhfcNft8Fpsyv_-1">
                    <mxGeometry x="1025" y="-1659" width="100" height="40" as="geometry"/>
                </mxCell>
                <mxCell id="xo5GPQUhfcNft8Fpsyv_-5" value="&lt;span style=&quot;caret-color: rgb(0, 0, 0); font-family: -webkit-standard; font-size: medium; text-align: start;&quot;&gt;system&lt;/span&gt;" style="rounded=0;whiteSpace=wrap;html=1;fillColor=#1ba1e2;fontColor=#ffffff;strokeColor=#006EAF;" vertex="1" parent="xo5GPQUhfcNft8Fpsyv_-1">
                    <mxGeometry x="1275" y="-1659" width="100" height="40" as="geometry"/>
                </mxCell>
                <mxCell id="xo5GPQUhfcNft8Fpsyv_-6" value="" style="endArrow=none;dashed=1;html=1;fontSize=20;" edge="1" parent="xo5GPQUhfcNft8Fpsyv_-1">
                    <mxGeometry width="50" height="50" relative="1" as="geometry">
                        <mxPoint x="600" y="-630" as="sourcePoint"/>
                        <mxPoint x="600" y="-1620" as="targetPoint"/>
                    </mxGeometry>
                </mxCell>
                <mxCell id="xo5GPQUhfcNft8Fpsyv_-7" value="" style="endArrow=none;dashed=1;html=1;fontSize=20;" edge="1" parent="xo5GPQUhfcNft8Fpsyv_-1">
                    <mxGeometry width="50" height="50" relative="1" as="geometry">
                        <mxPoint x="840" y="-620" as="sourcePoint"/>
                        <mxPoint x="840" y="-1620" as="targetPoint"/>
                    </mxGeometry>
                </mxCell>
                <mxCell id="xo5GPQUhfcNft8Fpsyv_-8" value="" style="endArrow=none;dashed=1;html=1;fontSize=20;" edge="1" parent="xo5GPQUhfcNft8Fpsyv_-1">
                    <mxGeometry width="50" height="50" relative="1" as="geometry">
                        <mxPoint x="1080" y="-616.2962510850695" as="sourcePoint"/>
                        <mxPoint x="1079.9999999999998" y="-1610" as="targetPoint"/>
                    </mxGeometry>
                </mxCell>
                <mxCell id="xo5GPQUhfcNft8Fpsyv_-9" value="" style="endArrow=none;dashed=1;html=1;fontSize=20;startArrow=none;" edge="1" parent="xo5GPQUhfcNft8Fpsyv_-1" source="xo5GPQUhfcNft8Fpsyv_-42">
                    <mxGeometry width="50" height="50" relative="1" as="geometry">
                        <mxPoint x="1320" y="-710" as="sourcePoint"/>
                        <mxPoint x="1320" y="-1610" as="targetPoint"/>
                    </mxGeometry>
                </mxCell>
                <mxCell id="xo5GPQUhfcNft8Fpsyv_-10" value="" style="endArrow=classic;html=1;fontSize=20;" edge="1" parent="xo5GPQUhfcNft8Fpsyv_-1">
                    <mxGeometry width="50" height="50" relative="1" as="geometry">
                        <mxPoint x="600" y="-1560" as="sourcePoint"/>
                        <mxPoint x="1290" y="-1560" as="targetPoint"/>
                    </mxGeometry>
                </mxCell>
                <mxCell id="xo5GPQUhfcNft8Fpsyv_-11" value="&lt;span style=&quot;caret-color: rgb(0, 0, 0); font-family: -webkit-standard; text-align: start;&quot;&gt;&lt;font style=&quot;font-size: 20px;&quot; color=&quot;#ffffff&quot;&gt;register&lt;/font&gt;&lt;/span&gt;" style="text;html=1;strokeColor=none;fillColor=none;align=center;verticalAlign=middle;whiteSpace=wrap;rounded=0;fontSize=20;" vertex="1" parent="xo5GPQUhfcNft8Fpsyv_-1">
                    <mxGeometry x="680" y="-1590" width="60" height="30" as="geometry"/>
                </mxCell>
                <mxCell id="xo5GPQUhfcNft8Fpsyv_-12" value="" style="endArrow=classic;html=1;fontSize=20;dashed=1;" edge="1" parent="xo5GPQUhfcNft8Fpsyv_-1">
                    <mxGeometry width="50" height="50" relative="1" as="geometry">
                        <mxPoint x="1290" y="-1534" as="sourcePoint"/>
                        <mxPoint x="600" y="-1534" as="targetPoint"/>
                    </mxGeometry>
                </mxCell>
                <mxCell id="xo5GPQUhfcNft8Fpsyv_-13" value="" style="endArrow=classic;html=1;fontSize=20;" edge="1" parent="xo5GPQUhfcNft8Fpsyv_-1">
                    <mxGeometry width="50" height="50" relative="1" as="geometry">
                        <mxPoint x="600" y="-1481" as="sourcePoint"/>
                        <mxPoint x="1290" y="-1480" as="targetPoint"/>
                    </mxGeometry>
                </mxCell>
                <mxCell id="xo5GPQUhfcNft8Fpsyv_-14" value="&lt;span style=&quot;caret-color: rgb(0, 0, 0); font-family: -webkit-standard; text-align: start;&quot;&gt;&lt;font color=&quot;#ffffff&quot; style=&quot;font-size: 20px;&quot;&gt;login&lt;/font&gt;&lt;/span&gt;" style="text;html=1;strokeColor=none;fillColor=none;align=center;verticalAlign=middle;whiteSpace=wrap;rounded=0;fontSize=20;" vertex="1" parent="xo5GPQUhfcNft8Fpsyv_-1">
                    <mxGeometry x="680" y="-1510" width="60" height="30" as="geometry"/>
                </mxCell>
                <mxCell id="xo5GPQUhfcNft8Fpsyv_-15" value="" style="endArrow=classic;html=1;fontSize=20;dashed=1;" edge="1" parent="xo5GPQUhfcNft8Fpsyv_-1">
                    <mxGeometry width="50" height="50" relative="1" as="geometry">
                        <mxPoint x="1290" y="-1441" as="sourcePoint"/>
                        <mxPoint x="600" y="-1441" as="targetPoint"/>
                    </mxGeometry>
                </mxCell>
                <mxCell id="xo5GPQUhfcNft8Fpsyv_-16" value="&lt;span style=&quot;caret-color: rgb(0, 0, 0); font-family: -webkit-standard; text-align: start;&quot;&gt;&lt;font color=&quot;#ffffff&quot; style=&quot;font-size: 20px;&quot;&gt;login successfu&lt;/font&gt;&lt;/span&gt;" style="text;html=1;strokeColor=none;fillColor=none;align=center;verticalAlign=middle;whiteSpace=wrap;rounded=0;fontSize=20;" vertex="1" parent="xo5GPQUhfcNft8Fpsyv_-1">
                    <mxGeometry x="614.5" y="-1474" width="191" height="30" as="geometry"/>
                </mxCell>
                <mxCell id="xo5GPQUhfcNft8Fpsyv_-17" value="" style="endArrow=classic;html=1;fontSize=20;" edge="1" parent="xo5GPQUhfcNft8Fpsyv_-1">
                    <mxGeometry width="50" height="50" relative="1" as="geometry">
                        <mxPoint x="604" y="-1364" as="sourcePoint"/>
                        <mxPoint x="1290" y="-1364" as="targetPoint"/>
                    </mxGeometry>
                </mxCell>
                <mxCell id="xo5GPQUhfcNft8Fpsyv_-18" value="&lt;span style=&quot;caret-color: rgb(0, 0, 0); font-family: -webkit-standard; text-align: start;&quot;&gt;&lt;font color=&quot;#ffffff&quot; style=&quot;font-size: 18px;&quot;&gt;create meal ordering event&lt;/font&gt;&lt;/span&gt;" style="text;html=1;strokeColor=none;fillColor=none;align=center;verticalAlign=middle;whiteSpace=wrap;rounded=0;fontSize=20;" vertex="1" parent="xo5GPQUhfcNft8Fpsyv_-1">
                    <mxGeometry x="580" y="-1400" width="286" height="30" as="geometry"/>
                </mxCell>
                <mxCell id="xo5GPQUhfcNft8Fpsyv_-19" value="" style="endArrow=classic;html=1;fontSize=20;dashed=1;" edge="1" parent="xo5GPQUhfcNft8Fpsyv_-1">
                    <mxGeometry width="50" height="50" relative="1" as="geometry">
                        <mxPoint x="1290" y="-1337" as="sourcePoint"/>
                        <mxPoint x="600" y="-1337" as="targetPoint"/>
                    </mxGeometry>
                </mxCell>
                <mxCell id="xo5GPQUhfcNft8Fpsyv_-20" value="" style="endArrow=classic;html=1;fontSize=20;" edge="1" parent="xo5GPQUhfcNft8Fpsyv_-1">
                    <mxGeometry width="50" height="50" relative="1" as="geometry">
                        <mxPoint x="600" y="-1277" as="sourcePoint"/>
                        <mxPoint x="1286" y="-1277" as="targetPoint"/>
                    </mxGeometry>
                </mxCell>
                <mxCell id="xo5GPQUhfcNft8Fpsyv_-21" value="&lt;span style=&quot;caret-color: rgb(0, 0, 0); font-family: -webkit-standard; text-align: start;&quot;&gt;&lt;font color=&quot;#ffffff&quot; style=&quot;font-size: 20px;&quot;&gt;order meal&lt;/font&gt;&lt;/span&gt;" style="text;html=1;strokeColor=none;fillColor=none;align=center;verticalAlign=middle;whiteSpace=wrap;rounded=0;fontSize=20;" vertex="1" parent="xo5GPQUhfcNft8Fpsyv_-1">
                    <mxGeometry x="644" y="-1312" width="130" height="30" as="geometry"/>
                </mxCell>
                <mxCell id="xo5GPQUhfcNft8Fpsyv_-22" value="" style="endArrow=classic;html=1;fontSize=20;dashed=1;" edge="1" parent="xo5GPQUhfcNft8Fpsyv_-1">
                    <mxGeometry width="50" height="50" relative="1" as="geometry">
                        <mxPoint x="1290" y="-1250" as="sourcePoint"/>
                        <mxPoint x="600" y="-1250" as="targetPoint"/>
                    </mxGeometry>
                </mxCell>
                <mxCell id="xo5GPQUhfcNft8Fpsyv_-23" value="" style="endArrow=classic;html=1;fontSize=20;" edge="1" parent="xo5GPQUhfcNft8Fpsyv_-1">
                    <mxGeometry width="50" height="50" relative="1" as="geometry">
                        <mxPoint x="600" y="-1190" as="sourcePoint"/>
                        <mxPoint x="1286" y="-1190" as="targetPoint"/>
                    </mxGeometry>
                </mxCell>
                <mxCell id="xo5GPQUhfcNft8Fpsyv_-24" value="" style="endArrow=classic;html=1;fontSize=20;dashed=1;" edge="1" parent="xo5GPQUhfcNft8Fpsyv_-1">
                    <mxGeometry width="50" height="50" relative="1" as="geometry">
                        <mxPoint x="1290" y="-1160" as="sourcePoint"/>
                        <mxPoint x="600" y="-1160" as="targetPoint"/>
                    </mxGeometry>
                </mxCell>
                <mxCell id="xo5GPQUhfcNft8Fpsyv_-25" value="&lt;span style=&quot;caret-color: rgb(0, 0, 0); font-family: -webkit-standard; text-align: start;&quot;&gt;&lt;font color=&quot;#ffffff&quot; style=&quot;font-size: 19px;&quot;&gt;check order status&lt;/font&gt;&lt;/span&gt;" style="text;html=1;strokeColor=none;fillColor=none;align=center;verticalAlign=middle;whiteSpace=wrap;rounded=0;fontSize=20;" vertex="1" parent="xo5GPQUhfcNft8Fpsyv_-1">
                    <mxGeometry x="614.5" y="-1222" width="195" height="30" as="geometry"/>
                </mxCell>
                <mxCell id="xo5GPQUhfcNft8Fpsyv_-26" value="" style="endArrow=classic;html=1;fontSize=20;" edge="1" parent="xo5GPQUhfcNft8Fpsyv_-1">
                    <mxGeometry width="50" height="50" relative="1" as="geometry">
                        <mxPoint x="840" y="-1110" as="sourcePoint"/>
                        <mxPoint x="1280" y="-1110" as="targetPoint"/>
                    </mxGeometry>
                </mxCell>
                <mxCell id="xo5GPQUhfcNft8Fpsyv_-27" value="" style="endArrow=classic;html=1;fontSize=20;dashed=1;" edge="1" parent="xo5GPQUhfcNft8Fpsyv_-1">
                    <mxGeometry width="50" height="50" relative="1" as="geometry">
                        <mxPoint x="1280" y="-1078" as="sourcePoint"/>
                        <mxPoint x="840" y="-1078" as="targetPoint"/>
                    </mxGeometry>
                </mxCell>
                <mxCell id="xo5GPQUhfcNft8Fpsyv_-28" value="&lt;span style=&quot;caret-color: rgb(0, 0, 0); font-family: -webkit-standard; text-align: start;&quot;&gt;&lt;font color=&quot;#ffffff&quot; style=&quot;font-size: 20px;&quot;&gt;receive orde&lt;/font&gt;&lt;/span&gt;" style="text;html=1;strokeColor=none;fillColor=none;align=center;verticalAlign=middle;whiteSpace=wrap;rounded=0;fontSize=20;" vertex="1" parent="xo5GPQUhfcNft8Fpsyv_-1">
                    <mxGeometry x="895" y="-1140" width="130" height="30" as="geometry"/>
                </mxCell>
                <mxCell id="xo5GPQUhfcNft8Fpsyv_-29" value="" style="endArrow=classic;html=1;fontSize=20;" edge="1" parent="xo5GPQUhfcNft8Fpsyv_-1">
                    <mxGeometry width="50" height="50" relative="1" as="geometry">
                        <mxPoint x="840" y="-1020" as="sourcePoint"/>
                        <mxPoint x="1280" y="-1020" as="targetPoint"/>
                    </mxGeometry>
                </mxCell>
                <mxCell id="xo5GPQUhfcNft8Fpsyv_-30" value="" style="endArrow=classic;html=1;fontSize=20;dashed=1;" edge="1" parent="xo5GPQUhfcNft8Fpsyv_-1">
                    <mxGeometry width="50" height="50" relative="1" as="geometry">
                        <mxPoint x="1280" y="-989" as="sourcePoint"/>
                        <mxPoint x="840" y="-989" as="targetPoint"/>
                    </mxGeometry>
                </mxCell>
                <mxCell id="xo5GPQUhfcNft8Fpsyv_-31" value="&lt;span style=&quot;caret-color: rgb(0, 0, 0); font-family: -webkit-standard; text-align: start;&quot;&gt;&lt;font color=&quot;#ffffff&quot; style=&quot;font-size: 20px;&quot;&gt;aggregate orders&lt;/font&gt;&lt;/span&gt;" style="text;html=1;strokeColor=none;fillColor=none;align=center;verticalAlign=middle;whiteSpace=wrap;rounded=0;fontSize=20;" vertex="1" parent="xo5GPQUhfcNft8Fpsyv_-1">
                    <mxGeometry x="870" y="-1055" width="180" height="26" as="geometry"/>
                </mxCell>
                <mxCell id="xo5GPQUhfcNft8Fpsyv_-32" value="" style="endArrow=classic;html=1;fontSize=20;" edge="1" parent="xo5GPQUhfcNft8Fpsyv_-1">
                    <mxGeometry width="50" height="50" relative="1" as="geometry">
                        <mxPoint x="840" y="-930" as="sourcePoint"/>
                        <mxPoint x="1280" y="-930" as="targetPoint"/>
                    </mxGeometry>
                </mxCell>
                <mxCell id="xo5GPQUhfcNft8Fpsyv_-33" value="" style="endArrow=classic;html=1;fontSize=20;dashed=1;" edge="1" parent="xo5GPQUhfcNft8Fpsyv_-1">
                    <mxGeometry width="50" height="50" relative="1" as="geometry">
                        <mxPoint x="1280" y="-901" as="sourcePoint"/>
                        <mxPoint x="600" y="-901" as="targetPoint"/>
                    </mxGeometry>
                </mxCell>
                <mxCell id="xo5GPQUhfcNft8Fpsyv_-34" value="&lt;span style=&quot;caret-color: rgb(0, 0, 0); font-family: -webkit-standard; text-align: start;&quot;&gt;&lt;font color=&quot;#ffffff&quot; style=&quot;font-size: 20px;&quot;&gt;send notifications&lt;/font&gt;&lt;/span&gt;" style="text;html=1;strokeColor=none;fillColor=none;align=center;verticalAlign=middle;whiteSpace=wrap;rounded=0;fontSize=20;" vertex="1" parent="xo5GPQUhfcNft8Fpsyv_-1">
                    <mxGeometry x="866" y="-959" width="180" height="26" as="geometry"/>
                </mxCell>
                <mxCell id="xo5GPQUhfcNft8Fpsyv_-35" value="" style="endArrow=classic;html=1;fontSize=20;" edge="1" parent="xo5GPQUhfcNft8Fpsyv_-1">
                    <mxGeometry width="50" height="50" relative="1" as="geometry">
                        <mxPoint x="840" y="-849.9999999999998" as="sourcePoint"/>
                        <mxPoint x="1280" y="-849.9999999999998" as="targetPoint"/>
                    </mxGeometry>
                </mxCell>
                <mxCell id="xo5GPQUhfcNft8Fpsyv_-36" value="&lt;span style=&quot;caret-color: rgb(0, 0, 0); font-family: -webkit-standard; text-align: start;&quot;&gt;&lt;font color=&quot;#ffffff&quot; style=&quot;font-size: 20px;&quot;&gt;retrieve data&lt;/font&gt;&lt;/span&gt;" style="text;html=1;strokeColor=none;fillColor=none;align=center;verticalAlign=middle;whiteSpace=wrap;rounded=0;fontSize=20;" vertex="1" parent="xo5GPQUhfcNft8Fpsyv_-1">
                    <mxGeometry x="885" y="-880" width="130" height="26" as="geometry"/>
                </mxCell>
                <mxCell id="xo5GPQUhfcNft8Fpsyv_-37" value="" style="endArrow=classic;html=1;fontSize=20;dashed=1;" edge="1" parent="xo5GPQUhfcNft8Fpsyv_-1">
                    <mxGeometry width="50" height="50" relative="1" as="geometry">
                        <mxPoint x="1280" y="-820" as="sourcePoint"/>
                        <mxPoint x="840" y="-820" as="targetPoint"/>
                    </mxGeometry>
                </mxCell>
                <mxCell id="xo5GPQUhfcNft8Fpsyv_-38" value="" style="endArrow=classic;html=1;fontSize=20;" edge="1" parent="xo5GPQUhfcNft8Fpsyv_-1">
                    <mxGeometry width="50" height="50" relative="1" as="geometry">
                        <mxPoint x="1080" y="-770" as="sourcePoint"/>
                        <mxPoint x="1290" y="-770" as="targetPoint"/>
                    </mxGeometry>
                </mxCell>
                <mxCell id="xo5GPQUhfcNft8Fpsyv_-39" value="&lt;span style=&quot;caret-color: rgb(0, 0, 0); font-family: -webkit-standard; text-align: start;&quot;&gt;&lt;font color=&quot;#ffffff&quot; style=&quot;font-size: 20px;&quot;&gt;provide information&lt;/font&gt;&lt;/span&gt;" style="text;html=1;strokeColor=none;fillColor=none;align=center;verticalAlign=middle;whiteSpace=wrap;rounded=0;fontSize=20;" vertex="1" parent="xo5GPQUhfcNft8Fpsyv_-1">
                    <mxGeometry x="1080" y="-800" width="210" height="26" as="geometry"/>
                </mxCell>
                <mxCell id="xo5GPQUhfcNft8Fpsyv_-40" value="" style="endArrow=classic;html=1;fontSize=20;dashed=1;" edge="1" parent="xo5GPQUhfcNft8Fpsyv_-1">
                    <mxGeometry width="50" height="50" relative="1" as="geometry">
                        <mxPoint x="1290" y="-740" as="sourcePoint"/>
                        <mxPoint x="1080" y="-740" as="targetPoint"/>
                    </mxGeometry>
                </mxCell>
                <mxCell id="xo5GPQUhfcNft8Fpsyv_-41" value="" style="endArrow=none;dashed=1;html=1;fontSize=20;startArrow=none;" edge="1" parent="xo5GPQUhfcNft8Fpsyv_-1" source="xo5GPQUhfcNft8Fpsyv_-44" target="xo5GPQUhfcNft8Fpsyv_-42">
                    <mxGeometry width="50" height="50" relative="1" as="geometry">
                        <mxPoint x="1320" y="-710" as="sourcePoint"/>
                        <mxPoint x="1320" y="-1610" as="targetPoint"/>
                    </mxGeometry>
                </mxCell>
                <mxCell id="xo5GPQUhfcNft8Fpsyv_-42" value="" style="rounded=0;whiteSpace=wrap;html=1;fontSize=20;fillColor=#1ba1e2;fontColor=#ffffff;strokeColor=#006EAF;" vertex="1" parent="xo5GPQUhfcNft8Fpsyv_-1">
                    <mxGeometry x="1300" y="-1590" width="40" height="70" as="geometry"/>
                </mxCell>
                <mxCell id="xo5GPQUhfcNft8Fpsyv_-43" value="" style="endArrow=none;dashed=1;html=1;fontSize=20;startArrow=none;" edge="1" parent="xo5GPQUhfcNft8Fpsyv_-1" source="xo5GPQUhfcNft8Fpsyv_-47" target="xo5GPQUhfcNft8Fpsyv_-44">
                    <mxGeometry width="50" height="50" relative="1" as="geometry">
                        <mxPoint x="1320" y="-710" as="sourcePoint"/>
                        <mxPoint x="1320" y="-1520" as="targetPoint"/>
                    </mxGeometry>
                </mxCell>
                <mxCell id="xo5GPQUhfcNft8Fpsyv_-44" value="" style="rounded=0;whiteSpace=wrap;html=1;fontSize=20;fillColor=#1ba1e2;fontColor=#ffffff;strokeColor=#006EAF;" vertex="1" parent="xo5GPQUhfcNft8Fpsyv_-1">
                    <mxGeometry x="1300" y="-1500" width="40" height="70" as="geometry"/>
                </mxCell>
                <mxCell id="xo5GPQUhfcNft8Fpsyv_-45" value="" style="rounded=0;whiteSpace=wrap;html=1;fontSize=20;fillColor=#1ba1e2;fontColor=#ffffff;strokeColor=#006EAF;" vertex="1" parent="xo5GPQUhfcNft8Fpsyv_-1">
                    <mxGeometry x="1300" y="-1385" width="40" height="70" as="geometry"/>
                </mxCell>
                <mxCell id="xo5GPQUhfcNft8Fpsyv_-46" value="" style="endArrow=none;dashed=1;html=1;fontSize=20;startArrow=none;" edge="1" parent="xo5GPQUhfcNft8Fpsyv_-1" source="xo5GPQUhfcNft8Fpsyv_-49" target="xo5GPQUhfcNft8Fpsyv_-47">
                    <mxGeometry width="50" height="50" relative="1" as="geometry">
                        <mxPoint x="1320" y="-710" as="sourcePoint"/>
                        <mxPoint x="1320" y="-1430" as="targetPoint"/>
                    </mxGeometry>
                </mxCell>
                <mxCell id="xo5GPQUhfcNft8Fpsyv_-47" value="" style="rounded=0;whiteSpace=wrap;html=1;fontSize=20;fillColor=#1ba1e2;fontColor=#ffffff;strokeColor=#006EAF;" vertex="1" parent="xo5GPQUhfcNft8Fpsyv_-1">
                    <mxGeometry x="1300" y="-1290" width="40" height="70" as="geometry"/>
                </mxCell>
                <mxCell id="xo5GPQUhfcNft8Fpsyv_-48" value="" style="endArrow=none;dashed=1;html=1;fontSize=20;startArrow=none;" edge="1" parent="xo5GPQUhfcNft8Fpsyv_-1" source="xo5GPQUhfcNft8Fpsyv_-51" target="xo5GPQUhfcNft8Fpsyv_-49">
                    <mxGeometry width="50" height="50" relative="1" as="geometry">
                        <mxPoint x="1320" y="-710" as="sourcePoint"/>
                        <mxPoint x="1320" y="-1220" as="targetPoint"/>
                    </mxGeometry>
                </mxCell>
                <mxCell id="xo5GPQUhfcNft8Fpsyv_-49" value="" style="rounded=0;whiteSpace=wrap;html=1;fontSize=20;fillColor=#1ba1e2;fontColor=#ffffff;strokeColor=#006EAF;" vertex="1" parent="xo5GPQUhfcNft8Fpsyv_-1">
                    <mxGeometry x="1300" y="-1203" width="40" height="70" as="geometry"/>
                </mxCell>
                <mxCell id="xo5GPQUhfcNft8Fpsyv_-50" value="" style="endArrow=none;dashed=1;html=1;fontSize=20;startArrow=none;" edge="1" parent="xo5GPQUhfcNft8Fpsyv_-1" source="xo5GPQUhfcNft8Fpsyv_-53" target="xo5GPQUhfcNft8Fpsyv_-51">
                    <mxGeometry width="50" height="50" relative="1" as="geometry">
                        <mxPoint x="1320" y="-710" as="sourcePoint"/>
                        <mxPoint x="1320" y="-1133" as="targetPoint"/>
                    </mxGeometry>
                </mxCell>
                <mxCell id="xo5GPQUhfcNft8Fpsyv_-51" value="" style="rounded=0;whiteSpace=wrap;html=1;fontSize=20;fillColor=#1ba1e2;fontColor=#ffffff;strokeColor=#006EAF;" vertex="1" parent="xo5GPQUhfcNft8Fpsyv_-1">
                    <mxGeometry x="1300" y="-1118" width="40" height="70" as="geometry"/>
                </mxCell>
                <mxCell id="xo5GPQUhfcNft8Fpsyv_-52" value="" style="endArrow=none;dashed=1;html=1;fontSize=20;startArrow=none;" edge="1" parent="xo5GPQUhfcNft8Fpsyv_-1" source="xo5GPQUhfcNft8Fpsyv_-55" target="xo5GPQUhfcNft8Fpsyv_-53">
                    <mxGeometry width="50" height="50" relative="1" as="geometry">
                        <mxPoint x="1320" y="-710" as="sourcePoint"/>
                        <mxPoint x="1320" y="-1048" as="targetPoint"/>
                    </mxGeometry>
                </mxCell>
                <mxCell id="xo5GPQUhfcNft8Fpsyv_-53" value="" style="rounded=0;whiteSpace=wrap;html=1;fontSize=20;fillColor=#1ba1e2;fontColor=#ffffff;strokeColor=#006EAF;" vertex="1" parent="xo5GPQUhfcNft8Fpsyv_-1">
                    <mxGeometry x="1300" y="-1029" width="40" height="70" as="geometry"/>
                </mxCell>
                <mxCell id="xo5GPQUhfcNft8Fpsyv_-54" value="" style="endArrow=none;dashed=1;html=1;fontSize=20;startArrow=none;" edge="1" parent="xo5GPQUhfcNft8Fpsyv_-1" source="xo5GPQUhfcNft8Fpsyv_-57" target="xo5GPQUhfcNft8Fpsyv_-55">
                    <mxGeometry width="50" height="50" relative="1" as="geometry">
                        <mxPoint x="1320" y="-710" as="sourcePoint"/>
                        <mxPoint x="1320" y="-959" as="targetPoint"/>
                    </mxGeometry>
                </mxCell>
                <mxCell id="xo5GPQUhfcNft8Fpsyv_-55" value="" style="rounded=0;whiteSpace=wrap;html=1;fontSize=20;fillColor=#1ba1e2;fontColor=#ffffff;strokeColor=#006EAF;" vertex="1" parent="xo5GPQUhfcNft8Fpsyv_-1">
                    <mxGeometry x="1300" y="-940" width="40" height="70" as="geometry"/>
                </mxCell>
                <mxCell id="xo5GPQUhfcNft8Fpsyv_-56" value="" style="endArrow=none;dashed=1;html=1;fontSize=20;startArrow=none;" edge="1" parent="xo5GPQUhfcNft8Fpsyv_-1" source="xo5GPQUhfcNft8Fpsyv_-59" target="xo5GPQUhfcNft8Fpsyv_-57">
                    <mxGeometry width="50" height="50" relative="1" as="geometry">
                        <mxPoint x="1320" y="-630" as="sourcePoint"/>
                        <mxPoint x="1320" y="-870" as="targetPoint"/>
                    </mxGeometry>
                </mxCell>
                <mxCell id="xo5GPQUhfcNft8Fpsyv_-57" value="" style="rounded=0;whiteSpace=wrap;html=1;fontSize=20;fillColor=#1ba1e2;fontColor=#ffffff;strokeColor=#006EAF;" vertex="1" parent="xo5GPQUhfcNft8Fpsyv_-1">
                    <mxGeometry x="1300" y="-860" width="40" height="70" as="geometry"/>
                </mxCell>
                <mxCell id="xo5GPQUhfcNft8Fpsyv_-58" value="" style="endArrow=none;dashed=1;html=1;fontSize=20;" edge="1" parent="xo5GPQUhfcNft8Fpsyv_-1" target="xo5GPQUhfcNft8Fpsyv_-59">
                    <mxGeometry width="50" height="50" relative="1" as="geometry">
                        <mxPoint x="1320" y="-630" as="sourcePoint"/>
                        <mxPoint x="1320" y="-790" as="targetPoint"/>
                    </mxGeometry>
                </mxCell>
                <mxCell id="xo5GPQUhfcNft8Fpsyv_-59" value="" style="rounded=0;whiteSpace=wrap;html=1;fontSize=20;fillColor=#1ba1e2;fontColor=#ffffff;strokeColor=#006EAF;" vertex="1" parent="xo5GPQUhfcNft8Fpsyv_-1">
                    <mxGeometry x="1300" y="-774" width="40" height="70" as="geometry"/>
                </mxCell>
            </root>
        </mxGraphModel>
    </diagram>
</mxfile>